<svg viewBox="0 0 32 32" height="32" width="32" xmlns="http://www.w3.org/2000/svg" version="1.1">
  <title>facebook</title>
  <path d="M16 32c-8.8 0-16-7.2-16-16s7.2-16 16-16 16 7.2 16 16c0 8.8-7.2 16-16 16zM16 1.455c-8 0-14.545 6.545-14.545 14.545s6.545 14.545 14.545 14.545c8 0 14.545-6.545 14.545-14.545s-6.545-14.545-14.545-14.545z" fill="white"></path>
  <path d="M17.455 25.455h-3.855v-9.091h-1.964v-3.127h1.964v-1.891c0-2.545 1.091-4.073 4.218-4.073h2.545v3.127h-1.6c-1.236 0-1.309 0.436-1.309 1.236v1.6h2.909l-0.364 3.127h-2.545v9.091z" fill="white"></path>
</svg>
